<svg xmlns="http://www.w3.org/2000/svg" viewBox="0 0 320 180" role="img"><title>오스테리아 오르조 한남 인근 건물 모형</title><rect width="320" height="180" rx="18" fill="#eef3f7"/><polygon points="133.3,101.5 161.1,117.1 161.1,45.6 133.3,30.0" fill="#9cafbd" stroke="#6e879a" stroke-width=".7"/><polygon points="161.1,117.1 137.4,125.8 137.4,54.4 161.1,45.6" fill="#9cafbd" stroke="#6e879a" stroke-width=".7"/><polygon points="137.4,125.8 139.6,127.0 139.6,55.6 137.4,54.4" fill="#9cafbd" stroke="#6e879a" stroke-width=".7"/><polygon points="139.6,127.0 64.9,155.0 64.9,83.5 139.6,55.6" fill="#9cafbd" stroke="#6e879a" stroke-width=".7"/><polygon points="64.9,155.0 30.0,135.9 30.0,64.5 64.9,83.5" fill="#9cafbd" stroke="#6e879a" stroke-width=".7"/><polygon points="30.0,135.9 133.3,101.5 133.3,30.0 30.0,64.5" fill="#9cafbd" stroke="#6e879a" stroke-width=".7"/><polygon points="133.3,30.0 161.1,45.6 137.4,54.4 139.6,55.6 64.9,83.5 30.0,64.5 133.3,30.0" fill="#d8e4ed" stroke="#6e879a"/></svg>